<svg xmlns="http://www.w3.org/2000/svg" viewBox="0 0 500 500" width="500" height="500">
  <style>
    .st0{fill:#f8f9fa}
    .st1{fill:#e9ecef}
    .st2{fill:#dee2e6}
    .st3{fill:#2A5CAA}
    .st4{fill:#dc3545}
    .st5{fill:#212529}
  </style>
  <g id="BACKGROUND">
    <path class="st0" d="M484.2,454.4H15.8c-8.7,0-15.8-7.1-15.8-15.8V61.4c0-8.7,7.1-15.8,15.8-15.8h468.4c8.7,0,15.8,7.1,15.8,15.8v377.2C500,447.3,492.9,454.4,484.2,454.4z"/>
    <path class="st1" d="M500,61.4v377.2c0,8.7-7.1,15.8-15.8,15.8H15.8c-8.7,0-15.8-7.1-15.8-15.8"/>
  </g>
  <g id="OBJECTS">
    <path class="st2" d="M326.5,130.9H173.5c-5.5,0-10-4.5-10-10v-0.2c0-5.5,4.5-10,10-10h153.1c5.5,0,10,4.5,10,10v0.2C336.5,126.4,332,130.9,326.5,130.9z"/>
    <path class="st3" d="M141.7,130.9h-15.2c-5.5,0-10-4.5-10-10v-0.2c0-5.5,4.5-10,10-10h15.2c5.5,0,10,4.5,10,10v0.2C151.7,126.4,147.2,130.9,141.7,130.9z"/>
    <path class="st4" d="M108.5,130.9H93.3c-5.5,0-10-4.5-10-10v-0.2c0-5.5,4.5-10,10-10h15.2c5.5,0,10,4.5,10,10v0.2C118.5,126.4,114,130.9,108.5,130.9z"/>
    <path class="st1" d="M418.8,389.3H81.2c-5.5,0-10-4.5-10-10V180.1c0-5.5,4.5-10,10-10h337.6c5.5,0,10,4.5,10,10v199.2C428.8,384.8,424.3,389.3,418.8,389.3z"/>
    <g>
      <path class="st4" d="M147.4,305.4c-2.5,0-4.6-2-4.6-4.6v-62.8c0-2.5,2-4.6,4.6-4.6h25.9c14.8,0,26.8,12,26.8,26.8v18.3c0,14.8-12,26.8-26.8,26.8H147.4z M173.3,242.6h-21.3v53.7h21.3c10,0,18.1-8.1,18.1-18.1v-17.4C191.4,250.8,183.3,242.6,173.3,242.6z"/>
      <path class="st4" d="M243.5,305.4c-2.5,0-4.6-2-4.6-4.6v-62.8c0-2.5,2-4.6,4.6-4.6h25.9c14.8,0,26.8,12,26.8,26.8v18.3c0,14.8-12,26.8-26.8,26.8H243.5z M269.4,242.6h-21.3v53.7h21.3c10,0,18.1-8.1,18.1-18.1v-17.4C287.6,250.8,279.4,242.6,269.4,242.6z"/>
      <path class="st4" d="M352.6,305.4c-15.7,0-28.5-12.8-28.5-28.5v-15.1c0-15.7,12.8-28.5,28.5-28.5c15.7,0,28.5,12.8,28.5,28.5v15.1C381.1,292.6,368.3,305.4,352.6,305.4z M352.6,242.6c-10.6,0-19.3,8.6-19.3,19.3v15.1c0,10.6,8.6,19.3,19.3,19.3c10.6,0,19.3-8.6,19.3-19.3v-15.1C371.9,251.2,363.3,242.6,352.6,242.6z"/>
    </g>
    <path class="st5" d="M250,348.3c-2.5,0-4.6-2-4.6-4.6v-9.1c0-2.5,2-4.6,4.6-4.6c2.5,0,4.6,2,4.6,4.6v9.1C254.6,346.2,252.5,348.3,250,348.3z"/>
    <path class="st5" d="M250,368.1c-2.5,0-4.6-2-4.6-4.6v-1.8c0-2.5,2-4.6,4.6-4.6c2.5,0,4.6,2,4.6,4.6v1.8C254.6,366.1,252.5,368.1,250,368.1z"/>
  </g>
</svg> 